<svg height="512" viewBox="0 0 512 512" width="512" xmlns="http://www.w3.org/2000/svg"><path d="m344 408h96a0 0 0 0 1 0 0v64a16 16 0 0 1 -16 16h-64a16 16 0 0 1 -16-16v-64a0 0 0 0 1 0 0z" fill="#4d5e78"/><path d="m344 408h96v48h-96z" fill="#44546c"/><path d="m368 432h16v56h-16z" fill="#404f66"/><path d="m400 432h16v56h-16z" fill="#404f66"/><path d="m72 408h96a0 0 0 0 1 0 0v64a16 16 0 0 1 -16 16h-64a16 16 0 0 1 -16-16v-64a0 0 0 0 1 0 0z" fill="#4d5e78"/><path d="m72 408h96v48h-96z" fill="#44546c"/><path d="m96 432h16v56h-16z" fill="#404f66"/><path d="m128 432h16v56h-16z" fill="#404f66"/><path d="m120 24h272a48 48 0 0 1 48 48v336a32 32 0 0 1 -32 32h-304a32 32 0 0 1 -32-32v-336a48 48 0 0 1 48-48z" fill="#348fd9"/><rect fill="#60d1e0" height="224" rx="24" width="368" x="72" y="104"/><rect fill="#60d1e0" height="224" rx="24" width="368" x="72" y="104"/><g fill="#ffb531"><circle cx="120" cy="64" r="16"/><circle cx="168" cy="64" r="16"/><circle cx="344" cy="64" r="16"/></g><path d="m72 152v112h-32a15.982 15.982 0 0 1 -16-16v-80a16 16 0 0 1 16-16z" fill="#4d5e78"/><path d="m488 168v80a16 16 0 0 1 -16 16h-32v-112h32a15.993 15.993 0 0 1 16 16z" fill="#4d5e78"/><path d="m96 128h16v16h-16z" fill="#9fe4ed"/><path d="m96 160h16v96h-16z" fill="#9fe4ed"/><path d="m176 360h160v16h-160z" fill="#2a71ad"/><path d="m176 392h160v16h-160z" fill="#2a71ad"/><path d="m488 168v80a16 16 0 0 1 -16 16h-32v-14.87a427.1 427.1 0 0 0 43.98-91.74 15.967 15.967 0 0 1 4.02 10.61z" fill="#44546c"/><path d="m72 187.48v76.52h-32a15.966 15.966 0 0 1 -10.56-3.97 580.649 580.649 0 0 0 42.56-72.55z" fill="#44546c"/><path d="m416 328h-40v80a32 32 0 0 1 -32 32h64a32 32 0 0 0 32-32v-104a24 24 0 0 1 -24 24z" fill="#3086cd"/><path d="m392 24h-64a48 48 0 0 1 48 48v32h40a24 24 0 0 1 24 24v-56a48 48 0 0 0 -48-48z" fill="#3086cd"/><path d="m416 104h-40v224h40a24 24 0 0 0 24-24v-176a24 24 0 0 0 -24-24z" fill="#5ac6d4"/><circle cx="392" cy="64" fill="#ffb531" r="16"/><circle cx="128" cy="384" fill="#ffb531" r="24"/><circle cx="384" cy="384" fill="#ffb531" r="24"/><path d="m96 288h112v16h-112z" fill="#d6d6d4"/><path d="m272 288h112v16h-112z" fill="#d6d6d4"/><rect fill="#e0e0de" height="64.498" rx="7.999" transform="matrix(.496 -.868 .868 .496 -184.228 306.542)" width="15.999" x="164.001" y="279.751"/><rect fill="#e0e0de" height="64.498" rx="7.999" transform="matrix(.496 -.868 .868 .496 -95.548 459.353)" width="15.999" x="340.001" y="279.751"/></svg>